<?xml version="1.0" standalone="no"?>
<!DOCTYPE svg PUBLIC "-//W3C//DTD SVG 20010904//EN"
 "http://www.w3.org/TR/2001/REC-SVG-20010904/DTD/svg10.dtd">
<svg version="1.0" xmlns="http://www.w3.org/2000/svg"
 width="200.000000pt" height="200.000000pt" viewBox="0 0 200.000000 200.000000"
 preserveAspectRatio="xMidYMid meet">

<g transform="translate(0.000000,200.000000) scale(0.100000,-0.100000)"
fill="#000000" stroke="none">
<path d="M737 1533 c-16 -15 -5 -98 23 -174 41 -112 91 -172 256 -310 145
-121 194 -170 194 -195 0 -10 15 -14 60 -14 33 0 60 2 60 5 0 29 -58 86 -217
212 -243 193 -302 268 -279 357 7 29 32 33 84 15 l32 -11 -22 -17 c-15 -13
-19 -24 -15 -42 14 -57 73 -114 260 -253 188 -140 277 -220 277 -251 0 -12 13
-15 60 -15 33 0 60 3 60 8 0 13 -41 76 -69 106 -25 27 -94 78 -345 256 -99 70
-123 92 -135 124 -13 35 -13 40 2 51 15 10 13 15 -20 46 -27 25 -32 28 -20 9
21 -30 21 -40 2 -40 -8 0 -33 25 -56 56 -24 33 -55 62 -75 70 -35 15 -106 19
-117 7z"/>
<path d="M646 1509 c-23 -18 -26 -27 -26 -84 0 -77 42 -202 94 -280 18 -27 81
-99 139 -158 59 -60 110 -119 113 -133 6 -22 11 -24 60 -24 45 0 54 3 54 17 0
10 -72 87 -159 173 -88 85 -170 175 -184 200 -61 110 -92 243 -67 291 14 24 9
24 -24 -2z"/>
<path d="M558 1428 c-8 -15 -13 -61 -13 -123 1 -126 18 -174 122 -328 45 -68
72 -118 70 -129 -5 -16 2 -18 54 -18 76 0 77 14 9 95 -110 133 -142 177 -170
237 -43 93 -62 174 -54 236 7 56 2 65 -18 30z"/>
<path d="M1056 1431 c-17 -6 -15 -10 14 -34 45 -39 106 -38 144 2 25 26 26 30
9 33 -10 2 -35 -4 -55 -15 -31 -16 -45 -17 -75 -9 -21 5 -29 10 -18 11 11 1
27 6 35 11 12 8 10 10 -10 9 -14 0 -33 -4 -44 -8z"/>
<path d="M1280 1385 l-32 -55 -51 6 -52 6 25 -21 c14 -11 54 -34 90 -51 41
-20 91 -57 135 -99 39 -38 86 -78 106 -89 72 -43 179 -178 179 -226 0 -10 16
-15 61 -18 60 -3 60 -3 53 22 -3 14 -9 63 -11 109 -4 83 -6 86 -51 143 -36 47
-47 56 -54 43 -13 -22 -41 -19 -101 11 -29 15 -92 42 -141 60 -48 18 -89 34
-90 36 -37 58 -37 52 -6 117 l29 61 -29 0 c-24 0 -33 -8 -60 -55z"/>
<path d="M469 1380 c-31 -21 -64 -51 -74 -67 -18 -27 -18 -28 1 -14 10 8 31
26 47 40 15 14 27 19 27 13 0 -7 -7 -15 -16 -19 -8 -3 -13 -12 -10 -19 3 -7
-10 -48 -28 -91 -53 -125 -94 -235 -101 -273 -4 -19 -16 -50 -26 -68 -10 -18
-19 -35 -19 -38 0 -2 25 -4 55 -4 42 0 56 4 63 18 5 9 12 78 15 152 5 138 21
213 66 315 26 59 37 55 15 -6 -9 -24 -18 -87 -21 -140 -5 -84 -2 -107 22 -188
17 -58 25 -104 21 -123 l-6 -29 58 3 c74 4 76 15 22 120 -64 123 -80 179 -80
273 0 45 7 104 15 130 8 27 13 50 12 51 -1 1 -27 -15 -58 -36z"/>
<path d="M1398 1349 c-22 -59 -24 -71 -11 -76 32 -12 61 14 77 72 18 62 15 75
-17 75 -18 0 -27 -13 -49 -71z"/>
<path d="M1540 1335 c0 -31 -28 -65 -53 -65 -37 -1 40 -30 79 -30 29 0 34 4
34 23 0 12 -13 38 -30 57 -25 30 -29 32 -30 15z"/>
<path d="M344 1218 c-50 -51 -101 -109 -114 -128 l-25 -35 37 30 c20 17 58 56
84 87 26 32 50 55 52 53 8 -7 -80 -134 -132 -192 -39 -44 -47 -58 -44 -85 l3
-33 46 62 c50 66 160 271 139 258 -8 -5 -11 -3 -8 6 3 8 10 13 17 12 6 -2 18
11 26 27 9 17 14 30 12 30 -2 0 -44 -42 -93 -92z"/>
<path d="M10 775 c0 -13 117 -15 995 -15 878 0 995 2 995 15 0 13 -117 15
-995 15 -878 0 -995 -2 -995 -15z"/>
<path d="M272 633 l-2 -103 25 0 c14 0 25 4 25 9 0 5 -8 8 -17 7 -16 -1 -19
12 -24 94 l-5 95 -2 -102z"/>
<path d="M1590 630 c0 -60 4 -100 10 -100 6 0 10 11 10 24 0 13 6 29 14 35 11
9 18 5 36 -24 12 -19 26 -35 31 -35 14 0 11 8 -16 48 l-25 36 22 23 c33 35 9
27 -29 -9 l-33 -32 0 67 c0 38 -4 67 -10 67 -6 0 -10 -40 -10 -100z"/>
<path d="M1980 710 c0 -5 5 -10 10 -10 6 0 10 5 10 10 0 6 -4 10 -10 10 -5 0
-10 -4 -10 -10z"/>
<path d="M0 620 c0 -53 4 -90 10 -90 6 0 10 37 10 90 0 53 -4 90 -10 90 -6 0
-10 -37 -10 -90z"/>
<path d="M1163 620 c0 -52 2 -81 4 -64 2 18 12 39 23 49 17 16 20 14 50 -29
17 -25 35 -46 41 -46 5 0 -6 23 -26 52 l-35 52 37 38 c26 27 32 38 21 38 -9 0
-33 -20 -54 -45 -20 -25 -40 -45 -45 -45 -4 0 -10 21 -12 48 -2 26 -3 4 -4
-48z"/>
<path d="M430 663 c-67 -24 -46 -133 25 -133 62 0 86 70 40 115 -24 25 -36 28
-65 18z m58 -25 c26 -26 4 -98 -29 -98 -29 0 -49 22 -49 53 0 38 15 57 45 57
12 0 26 -5 33 -12z"/>
<path d="M820 652 c-16 -13 -22 -29 -22 -57 0 -44 20 -65 61 -65 31 0 59 16
48 26 -4 4 -13 2 -19 -4 -17 -17 -42 -15 -61 6 -26 28 -21 32 38 32 63 0 71
15 30 55 -29 30 -45 31 -75 7z m68 -14 c21 -21 13 -28 -33 -28 -43 0 -45 1
-35 20 12 22 49 27 68 8z"/>
<path d="M1799 652 c-31 -26 -19 -48 31 -62 30 -8 40 -16 38 -28 -4 -21 -44
-28 -64 -11 -8 6 -18 9 -21 5 -11 -11 19 -26 53 -26 38 0 62 24 48 47 -5 9
-25 21 -44 27 -20 6 -35 18 -35 26 0 19 41 25 61 10 9 -9 14 -9 14 -2 0 12
-31 32 -48 32 -5 0 -20 -8 -33 -18z"/>
<path d="M600 650 c0 -19 49 -120 58 -120 6 0 15 12 20 28 6 15 17 44 26 65 9
20 12 37 7 37 -5 0 -17 -21 -27 -47 -9 -27 -20 -52 -24 -56 -4 -4 -15 17 -25
48 -17 49 -35 72 -35 45z"/>
<path d="M1370 607 c0 -29 5 -58 12 -65 15 -15 65 -16 74 -1 4 7 0 9 -13 5
-40 -13 -53 2 -53 60 0 30 -4 54 -10 54 -5 0 -10 -24 -10 -53z"/>
<path d="M1468 608 c-5 -57 -1 -78 13 -78 5 0 9 29 9 65 0 78 -16 87 -22 13z"/>
<path d="M1980 595 c0 -37 4 -65 10 -65 6 0 10 28 10 65 0 37 -4 65 -10 65 -6
0 -10 -28 -10 -65z"/>
<path d="M10 465 c0 -13 117 -15 990 -15 873 0 990 2 990 15 0 13 -117 15
-990 15 -873 0 -990 -2 -990 -15z"/>
</g>
</svg>
